<?xml version="1.0" encoding="utf-8"?>
<!-- Generator: Adobe Illustrator 16.0.0, SVG Export Plug-In . SVG Version: 6.00 Build 0)  -->
<!DOCTYPE svg PUBLIC "-//W3C//DTD SVG 1.1//EN" "http://www.w3.org/Graphics/SVG/1.1/DTD/svg11.dtd">
<svg version="1.1" id="Capa_1" xmlns="http://www.w3.org/2000/svg" xmlns:xlink="http://www.w3.org/1999/xlink" x="0px" y="0px"
	 width="169px" height="67px" viewBox="0 0 169 67" enable-background="new 0 0 169 67" xml:space="preserve">
<g>
	<g>
		<path fill="#B1B436" d="M18.051,8.097c0-0.622,0.028-1.239,0.078-1.849c0.056-0.704-0.43-1.266-1.137-1.266H5.595
			c-0.704,0-1.275,0.57-1.275,1.275v22.611c0,0.705,0.494,0.989,1.104,0.637l14.897-8.617c0.608-0.354,0.808-1.129,0.479-1.752
			C19.042,15.815,18.051,12.076,18.051,8.097"/>
		<path fill="#B1B436" d="M45.923,32.11c-0.961,0.115-1.94,0.174-2.935,0.174c-1.71,0-3.372-0.178-4.977-0.5
			c-0.691-0.137-1.246,0.293-1.246,0.997v29.802c0,0.707,0.57,1.275,1.277,1.275h7.867c0.708,0,1.277-0.568,1.277-1.275V33.205
			C47.186,32.5,46.621,32.027,45.923,32.11"/>
		<path fill="#B1B436" d="M5.595,63.858H31.46c0.707,0,1.275-0.569,1.275-1.275V51.996c0-0.704-0.568-1.275-1.275-1.275H5.595
			c-0.705,0-1.275,0.572-1.275,1.275v10.587C4.319,63.289,4.89,63.858,5.595,63.858"/>
		<path fill="#3A663B" d="M31.581,29.601c-2.701-1.354-5.118-3.168-7.135-5.338c-0.479-0.518-1.338-0.671-1.948-0.316L5.423,33.837
			c-0.609,0.352-1.104,1.21-1.104,1.915v9.797c0,0.707,0.568,1.277,1.275,1.277H31.46c0.706,0,1.274-0.57,1.274-1.277V31.42
			C32.735,30.716,32.213,29.918,31.581,29.601"/>
		<path fill="#3A663B" d="M22.002,6.244c-0.078,0.703-0.12,1.418-0.12,2.134c0,11.251,9.405,20.36,21.008,20.36
			c1.026,0,2.042-0.078,3.037-0.222c0.698-0.1,1.259-0.791,1.259-1.494V6.257c0-0.705-0.569-1.275-1.277-1.275h-22.45
			C22.753,4.98,22.081,5.543,22.002,6.244"/>
		<polygon fill="#20201E" points="64.109,14.583 63.839,24.474 59.963,24.474 60.712,6.671 64.72,6.671 68.999,18.006 73.276,6.671 
			77.285,6.671 78.032,24.474 74.157,24.474 73.89,14.583 70.79,22.176 67.207,22.176 		"/>
		<polygon fill="#20201E" points="90.251,24.474 84.53,24.474 79.503,6.671 83.621,6.671 87.392,20.839 91.159,6.671 95.277,6.671 
					"/>
		<path fill="#20201E" d="M110.407,19.289c0,0.678-0.123,1.34-0.374,1.992c-0.25,0.65-0.646,1.232-1.191,1.751
			c-0.542,0.516-1.249,0.932-2.123,1.243c-0.876,0.311-1.943,0.467-3.208,0.467c-1.247,0-2.315-0.156-3.195-0.467
			c-0.881-0.313-1.595-0.727-2.14-1.243c-0.543-0.519-0.941-1.101-1.19-1.751c-0.248-0.651-0.375-1.314-0.375-1.992v-7.432
			c0-0.677,0.128-1.341,0.375-1.992c0.249-0.651,0.647-1.234,1.19-1.75c0.545-0.518,1.259-0.933,2.14-1.243
			c0.88-0.313,1.948-0.468,3.195-0.468c1.265,0,2.331,0.155,3.208,0.468c0.874,0.31,1.579,0.725,2.123,1.243
			c0.545,0.516,0.941,1.099,1.191,1.75c0.25,0.65,0.374,1.315,0.374,1.992V19.289z M106.397,12.204c0-0.696-0.225-1.243-0.682-1.645
			c-0.453-0.4-1.19-0.601-2.204-0.601c-1.015,0-1.753,0.201-2.207,0.601c-0.454,0.402-0.681,0.949-0.681,1.645v6.737
			c0,0.694,0.227,1.244,0.681,1.644c0.454,0.402,1.192,0.601,2.207,0.601c1.014,0,1.75-0.199,2.204-0.601
			c0.454-0.4,0.682-0.949,0.682-1.644V12.204z"/>
		<polygon fill="#20201E" points="120.86,10.225 120.86,24.474 116.848,24.474 116.848,10.225 112.063,10.225 112.063,6.671 
			125.644,6.671 125.644,10.225 		"/>
		<polygon fill="#20201E" points="131.578,14.583 131.312,24.474 127.437,24.474 128.185,6.671 132.194,6.671 136.475,18.006 
			140.75,6.671 144.759,6.671 145.507,24.474 141.631,24.474 141.362,14.583 138.264,22.176 134.681,22.176 		"/>
		<path fill="#20201E" d="M163.472,24.474h-4.171l-0.96-3.473h-5.964l-0.959,3.473h-4.171l5.426-17.803h5.347L163.472,24.474z
			 M153.288,17.657h4.091l-2.034-7.459L153.288,17.657z"/>
		<polygon fill="#636263" points="60.559,33.42 61.867,33.42 63.828,39.13 65.801,33.42 67.099,33.42 67.099,40.214 66.347,40.214 
			66.347,34.299 66.21,34.299 64.237,39.97 63.41,39.97 61.447,34.299 61.311,34.299 61.311,40.214 60.559,40.214 		"/>
		<path fill="#636263" d="M68.769,33.38h0.723v0.85h-0.723V33.38z M68.769,35.333h0.723v4.88h-0.723V35.333z"/>
		<path fill="#636263" d="M71.131,40.214v-4.88h0.732v0.323c0,0,0.821-0.42,1.512-0.42c1.336,0,1.641,0.664,1.641,2.439v2.538
			h-0.722v-2.528c0-1.298-0.147-1.776-1.035-1.776c-0.645,0-1.396,0.361-1.396,0.361v3.943H71.131z"/>
		<path fill="#636263" d="M76.62,33.38h0.722v0.85H76.62V33.38z M76.62,35.333h0.722v4.88H76.62V35.333z"/>
		<path fill="#636263" d="M82.173,36.056c0,0-1.083-0.156-1.709-0.156c-0.604,0-1.053,0.156-1.053,0.73
			c0,0.46,0.225,0.597,1.189,0.743c1.289,0.205,1.757,0.467,1.757,1.414c0,1.142-0.722,1.522-1.902,1.522
			c-0.626,0-1.735-0.185-1.735-0.185l0.039-0.634c0,0,1.131,0.165,1.629,0.165c0.799,0,1.229-0.176,1.229-0.838
			c0-0.509-0.253-0.625-1.229-0.78c-1.191-0.186-1.717-0.419-1.717-1.377c0-1.075,0.87-1.425,1.755-1.425
			c0.734,0,1.769,0.186,1.769,0.186L82.173,36.056z"/>
		<path fill="#636263" d="M84.594,35.996v2.276c0,1.064,0.058,1.355,0.701,1.355c0.274,0,0.87-0.048,0.87-0.048l0.038,0.634
			c0,0-0.644,0.107-0.985,0.107c-1.004,0-1.354-0.379-1.354-1.785v-2.54h-0.693v-0.663h0.693v-1.493h0.731v1.493h1.542v0.663H84.594
			z"/>
		<path fill="#636263" d="M90.755,39.562l0.017,0.594c0,0-1.105,0.156-1.891,0.156c-1.468,0-1.945-0.848-1.945-2.51
			c0-1.853,0.811-2.565,2.05-2.565c1.287,0,1.961,0.681,1.961,2.284l-0.038,0.565h-3.232c0.01,1.025,0.323,1.563,1.29,1.563
			C89.699,39.648,90.755,39.562,90.755,39.562 M90.218,37.491c0-1.172-0.384-1.6-1.231-1.6c-0.838,0-1.309,0.457-1.309,1.6H90.218z"
			/>
		<path fill="#636263" d="M92.247,35.333h0.731v0.644c0,0,0.753-0.565,1.699-0.741v0.761c-0.918,0.176-1.699,0.673-1.699,0.673
			v3.544h-0.731V35.333z"/>
		<path fill="#636263" d="M95.663,33.38h0.724v0.85h-0.724V33.38z M95.663,35.333h0.724v4.88h-0.724V35.333z"/>
		<path fill="#636263" d="M101.84,37.725c0,1.689-0.43,2.586-2.077,2.586c-1.65,0-2.101-0.82-2.101-2.606
			c0-1.679,0.561-2.469,2.101-2.469C101.238,35.237,101.84,36.056,101.84,37.725 M101.09,37.725c0-1.299-0.389-1.825-1.325-1.825
			c-1.038,0-1.348,0.467-1.348,1.804c0,1.368,0.194,1.952,1.348,1.952C100.916,39.656,101.09,39.014,101.09,37.725"/>
		<path fill="#636263" d="M109.076,40.214h-0.73v-0.323c0,0-0.753,0.419-1.484,0.419c-0.948,0-1.749-0.409-1.749-2.518
			c0-1.708,0.55-2.555,2.042-2.555c0.419,0,1.043,0.097,1.19,0.125v-1.98h0.73V40.214z M108.345,39.277v-3.27
			c-0.147-0.02-0.762-0.107-1.153-0.107c-1.023,0-1.348,0.633-1.348,1.912c0,1.563,0.539,1.814,1.114,1.824
			C107.612,39.637,108.345,39.277,108.345,39.277"/>
		<path fill="#636263" d="M114.231,39.562l0.019,0.594c0,0-1.105,0.156-1.895,0.156c-1.463,0-1.942-0.848-1.942-2.51
			c0-1.853,0.81-2.565,2.05-2.565c1.288,0,1.964,0.681,1.964,2.284l-0.04,0.565h-3.231c0.009,1.025,0.323,1.563,1.288,1.563
			C113.176,39.648,114.231,39.562,114.231,39.562 M113.695,37.491c0-1.172-0.382-1.6-1.232-1.6c-0.838,0-1.307,0.457-1.307,1.6
			H113.695z"/>
		<polygon fill="#636263" points="122.674,33.42 120.909,40.214 119.238,40.214 117.45,33.42 118.233,33.42 119.814,39.501 
			120.329,39.501 121.893,33.42 		"/>
		<path fill="#636263" d="M123.751,33.38h0.722v0.85h-0.722V33.38z M123.751,35.333h0.722v4.88h-0.722V35.333z"/>
		<polygon fill="#636263" points="126.256,35.333 127.427,39.588 127.789,39.588 128.982,35.333 129.723,35.333 128.338,40.214 
			126.872,40.214 125.497,35.333 		"/>
		<path fill="#636263" d="M130.757,33.38h0.722v0.85h-0.722V33.38z M130.757,35.333h0.722v4.88h-0.722V35.333z"/>
		<path fill="#636263" d="M136.576,39.562l0.02,0.594c0,0-1.104,0.156-1.895,0.156c-1.462,0-1.94-0.848-1.94-2.51
			c0-1.853,0.809-2.565,2.05-2.565c1.289,0,1.959,0.681,1.959,2.284l-0.038,0.565h-3.231c0.01,1.025,0.325,1.563,1.292,1.563
			C135.521,39.648,136.576,39.562,136.576,39.562 M136.041,37.491c0-1.172-0.381-1.6-1.23-1.6c-0.841,0-1.31,0.457-1.31,1.6H136.041
			z"/>
		<path fill="#636263" d="M138.07,40.214v-4.88h0.73v0.323c0,0,0.821-0.42,1.514-0.42c1.336,0,1.64,0.664,1.64,2.439v2.538h-0.722
			v-2.528c0-1.298-0.146-1.776-1.036-1.776c-0.644,0-1.396,0.361-1.396,0.361v3.943H138.07z"/>
		<path fill="#636263" d="M147.215,40.214h-0.732v-0.323c0,0-0.75,0.419-1.483,0.419c-0.948,0-1.748-0.409-1.748-2.518
			c0-1.708,0.548-2.555,2.042-2.555c0.418,0,1.043,0.097,1.188,0.125v-1.98h0.732V40.214L147.215,40.214z M146.483,39.277v-3.27
			c-0.145-0.02-0.761-0.107-1.15-0.107c-1.024,0-1.346,0.633-1.346,1.912c0,1.563,0.535,1.814,1.112,1.824
			C145.752,39.637,146.483,39.277,146.483,39.277"/>
		<path fill="#636263" d="M152.293,39.229c0.019,0.313,0.253,0.408,0.565,0.449l-0.027,0.632c-0.586,0-0.898-0.106-1.154-0.369
			c0,0-0.875,0.369-1.804,0.369c-0.85,0-1.329-0.535-1.329-1.494c0-0.934,0.479-1.355,1.485-1.442l1.54-0.146v-0.4
			c0-0.616-0.311-0.891-0.848-0.891c-0.713,0-1.862,0.138-1.862,0.138l-0.029-0.644c0,0,1.169-0.195,1.922-0.195
			c1.034,0,1.543,0.489,1.543,1.592v2.402H152.293z M150.127,37.939c-0.597,0.058-0.84,0.361-0.84,0.858
			c0,0.567,0.253,0.88,0.693,0.88c0.742,0,1.589-0.294,1.589-0.294v-1.561L150.127,37.939z"/>
		<path fill="#636263" d="M60.188,48.002c0-2.247,0.585-3.534,2.674-3.534c2.088,0,2.665,1.278,2.665,3.534
			c0,2.322-0.577,3.453-2.665,3.453C60.756,51.455,60.188,50.265,60.188,48.002 M64.756,48.002c0-1.798-0.362-2.824-1.893-2.824
			c-1.552,0-1.894,1.017-1.894,2.824c0,1.804,0.322,2.74,1.894,2.74C64.424,50.741,64.756,49.866,64.756,48.002"/>
		<path fill="#636263" d="M66.886,46.478h0.731v0.645c0,0,0.751-0.565,1.698-0.742v0.761c-0.917,0.176-1.698,0.673-1.698,0.673
			v3.543h-0.731V46.478z"/>
		<path fill="#636263" d="M73.961,51.357h-0.73v-0.323c0,0-0.752,0.419-1.485,0.419c-0.945,0-1.746-0.409-1.746-2.519
			c0-1.707,0.546-2.555,2.041-2.555c0.418,0,1.045,0.097,1.19,0.125v-1.98h0.73V51.357z M73.229,50.421v-3.27
			c-0.145-0.019-0.761-0.108-1.152-0.108c-1.023,0-1.346,0.635-1.346,1.914c0,1.563,0.536,1.814,1.112,1.824
			C72.498,50.781,73.229,50.421,73.229,50.421"/>
		<path fill="#636263" d="M79.117,50.703l0.018,0.597c0,0-1.104,0.155-1.893,0.155c-1.463,0-1.943-0.85-1.943-2.508
			c0-1.855,0.81-2.566,2.049-2.566c1.29,0,1.964,0.684,1.964,2.282l-0.041,0.567h-3.23c0.01,1.026,0.321,1.561,1.288,1.561
			C78.063,50.791,79.117,50.703,79.117,50.703 M78.58,48.633c0-1.172-0.38-1.599-1.231-1.599c-0.838,0-1.307,0.457-1.307,1.599
			H78.58z"/>
		<path fill="#636263" d="M80.611,51.357v-4.879h0.731V46.8c0,0,0.821-0.419,1.514-0.419c1.335,0,1.639,0.662,1.639,2.44v2.537
			h-0.721v-2.529c0-1.297-0.148-1.776-1.036-1.776c-0.644,0-1.396,0.361-1.396,0.361v3.944L80.611,51.357L80.611,51.357z"/>
		<path fill="#636263" d="M89.532,50.371c0.021,0.314,0.253,0.41,0.566,0.448l-0.031,0.636c-0.583,0-0.895-0.106-1.15-0.371
			c0,0-0.878,0.371-1.806,0.371c-0.849,0-1.327-0.536-1.327-1.493c0-0.936,0.479-1.356,1.483-1.444l1.542-0.146v-0.399
			c0-0.615-0.312-0.889-0.852-0.889c-0.71,0-1.86,0.135-1.86,0.135l-0.029-0.644c0,0,1.17-0.194,1.921-0.194
			c1.035,0,1.542,0.487,1.542,1.591V50.371z M87.367,49.084c-0.596,0.056-0.839,0.36-0.839,0.858c0,0.564,0.253,0.876,0.693,0.876
			c0.739,0,1.591-0.289,1.591-0.289v-1.563L87.367,49.084z"/>
		<path fill="#636263" d="M91.25,51.357v-4.879h0.734v0.33c0,0,0.585-0.35,1.22-0.391c0.193-0.019,0.379-0.028,0.535-0.009
			c0.412,0.04,0.705,0.176,0.898,0.409c0.284-0.105,1.095-0.437,1.769-0.437c1.324,0,1.649,0.632,1.649,2.44v2.537h-0.731v-2.314
			c0-1.492-0.096-1.99-1.026-1.99c-0.663,0-1.347,0.35-1.366,0.36c0.078,0.227,0.117,0.822,0.117,1.408v2.537h-0.731v-2.52
			c0-1.346-0.137-1.785-1.026-1.785c-0.654,0-1.307,0.361-1.307,0.361v3.944L91.25,51.357L91.25,51.357z"/>
		<path fill="#636263" d="M99.625,44.525h0.727v0.848h-0.727V44.525z M99.625,46.478h0.727v4.881h-0.727V46.478z"/>
		<path fill="#636263" d="M105.445,50.703l0.02,0.597c0,0-1.103,0.155-1.895,0.155c-1.463,0-1.942-0.85-1.942-2.508
			c0-1.855,0.811-2.566,2.05-2.566c1.289,0,1.962,0.684,1.962,2.282l-0.041,0.567h-3.227c0.007,1.026,0.318,1.561,1.285,1.561
			C104.391,50.791,105.445,50.703,105.445,50.703 M104.907,48.633c0-1.172-0.379-1.599-1.229-1.599
			c-0.839,0-1.306,0.457-1.306,1.599H104.907z"/>
		<path fill="#636263" d="M106.938,51.357v-4.879h0.735V46.8c0,0,0.818-0.419,1.51-0.419c1.339,0,1.64,0.662,1.64,2.44v2.537h-0.721
			v-2.529c0-1.297-0.145-1.776-1.035-1.776c-0.644,0-1.394,0.361-1.394,0.361v3.944L106.938,51.357L106.938,51.357z"/>
		<path fill="#636263" d="M113.322,47.142v2.274c0,1.064,0.059,1.355,0.705,1.355c0.272,0,0.869-0.047,0.869-0.047l0.039,0.634
			c0,0-0.645,0.106-0.987,0.106c-1.004,0-1.355-0.38-1.355-1.785v-2.538h-0.692v-0.664h0.692v-1.495h0.73v1.495h1.543v0.664H113.322
			z"/>
		<path fill="#636263" d="M119.843,48.868c0,1.688-0.431,2.587-2.08,2.587c-1.65,0-2.099-0.819-2.099-2.606
			c0-1.681,0.558-2.468,2.099-2.468C119.238,46.38,119.843,47.199,119.843,48.868 M119.094,48.868c0-1.298-0.391-1.826-1.33-1.826
			c-1.035,0-1.346,0.467-1.346,1.807c0,1.367,0.195,1.953,1.346,1.953C118.919,50.801,119.094,50.157,119.094,48.868"/>
		<polygon fill="#636263" points="122.589,44.563 127.468,44.563 127.468,45.288 125.407,45.288 125.407,51.357 124.665,51.357 
			124.665,45.288 122.589,45.288 		"/>
		<path fill="#636263" d="M131.733,50.703l0.019,0.597c0,0-1.102,0.155-1.893,0.155c-1.464,0-1.94-0.85-1.94-2.508
			c0-1.855,0.81-2.566,2.047-2.566c1.289,0,1.963,0.684,1.963,2.282l-0.039,0.567h-3.23c0.01,1.026,0.322,1.561,1.288,1.561
			C130.679,50.791,131.733,50.703,131.733,50.703 M131.196,48.633c0-1.172-0.38-1.599-1.23-1.599c-0.84,0-1.307,0.457-1.307,1.599
			H131.196z"/>
		<path fill="#636263" d="M133.228,46.478h0.731v0.645c0,0,0.754-0.565,1.697-0.742v0.761c-0.916,0.176-1.697,0.673-1.697,0.673
			v3.543h-0.731V46.478z"/>
		<path fill="#636263" d="M136.705,46.478h0.73v0.645c0,0,0.751-0.565,1.697-0.742v0.761c-0.917,0.176-1.697,0.673-1.697,0.673
			v3.543h-0.73V46.478z"/>
		<path fill="#636263" d="M140.121,44.525h0.721v0.848h-0.721V44.525z M140.121,46.478h0.721v4.881h-0.721V46.478z"/>
		<path fill="#636263" d="M143.322,47.142v2.274c0,1.064,0.06,1.355,0.703,1.355c0.274,0,0.87-0.047,0.87-0.047l0.037,0.634
			c0,0-0.645,0.106-0.984,0.106c-1.007,0-1.357-0.38-1.357-1.785v-2.538h-0.692v-0.664h0.692v-1.495h0.732v1.495h1.542v0.664
			H143.322z"/>
		<path fill="#636263" d="M149.843,48.868c0,1.688-0.431,2.587-2.078,2.587c-1.653,0-2.099-0.819-2.099-2.606
			c0-1.681,0.556-2.468,2.099-2.468C149.236,46.38,149.843,47.199,149.843,48.868 M149.092,48.868c0-1.298-0.391-1.826-1.327-1.826
			c-1.035,0-1.346,0.467-1.346,1.807c0,1.367,0.191,1.953,1.346,1.953C148.916,50.801,149.092,50.157,149.092,48.868"/>
		<path fill="#636263" d="M151.18,46.478h0.734v0.645c0,0,0.752-0.565,1.697-0.742v0.761c-0.917,0.176-1.697,0.673-1.697,0.673
			v3.543h-0.734V46.478z"/>
		<path fill="#636263" d="M154.597,44.525h0.722v0.848h-0.722V44.525z M154.597,46.478h0.722v4.881h-0.722V46.478z"/>
		<path fill="#636263" d="M160.339,50.371c0.018,0.314,0.25,0.41,0.565,0.448l-0.031,0.636c-0.582,0-0.898-0.106-1.151-0.371
			c0,0-0.877,0.371-1.806,0.371c-0.849,0-1.329-0.536-1.329-1.493c0-0.936,0.479-1.356,1.487-1.444l1.541-0.146v-0.399
			c0-0.615-0.313-0.889-0.852-0.889c-0.71,0-1.861,0.135-1.861,0.135l-0.03-0.644c0,0,1.171-0.194,1.921-0.194
			c1.037,0,1.545,0.487,1.545,1.591V50.371L160.339,50.371z M158.169,49.084c-0.596,0.056-0.838,0.36-0.838,0.858
			c0,0.564,0.251,0.876,0.692,0.876c0.74,0,1.591-0.289,1.591-0.289v-1.563L158.169,49.084z"/>
		<path fill="#636263" d="M60.647,57.621l1.219,4.177h0.331l1.221-4.177h0.731c-0.477,1.697-0.975,3.368-1.463,5.065l-0.565,1.979
			h-0.732l0.624-2.165h-0.712l-1.384-4.88H60.647z"/>
		<polygon fill="#636263" points="67.559,55.706 68.867,55.706 70.828,61.418 72.799,55.706 74.098,55.706 74.098,62.501 
			73.346,62.501 73.346,56.585 73.209,56.585 71.237,62.256 70.411,62.256 68.447,56.585 68.311,56.585 68.311,62.501 
			67.559,62.501 		"/>
		<path fill="#636263" d="M79.281,61.847l0.021,0.594c0,0-1.102,0.158-1.895,0.158c-1.463,0-1.941-0.849-1.941-2.508
			c0-1.852,0.81-2.566,2.048-2.566c1.291,0,1.963,0.683,1.963,2.282l-0.041,0.568h-3.228c0.009,1.025,0.321,1.559,1.287,1.559
			C78.229,61.933,79.281,61.847,79.281,61.847 M78.745,59.778c0-1.171-0.379-1.6-1.23-1.6c-0.839,0-1.306,0.458-1.306,1.6H78.745z"
			/>
		<path fill="#636263" d="M84.379,62.501h-0.733v-0.324c0,0-0.75,0.421-1.482,0.421c-0.948,0-1.747-0.409-1.747-2.518
			c0-1.709,0.546-2.556,2.039-2.556c0.419,0,1.045,0.097,1.191,0.128V55.67h0.733V62.501z M83.645,61.564v-3.27
			c-0.146-0.019-0.761-0.108-1.15-0.108c-1.026,0-1.348,0.636-1.348,1.913c0,1.562,0.537,1.816,1.113,1.826
			C82.916,61.924,83.645,61.564,83.645,61.564"/>
		<path fill="#636263" d="M86.02,55.667h0.722v0.849H86.02V55.667L86.02,55.667z M86.02,57.621h0.722v4.88H86.02V57.621
			L86.02,57.621z"/>
		<path fill="#636263" d="M92.197,60.011c0,1.689-0.429,2.587-2.08,2.587c-1.648,0-2.098-0.821-2.098-2.607
			c0-1.675,0.559-2.468,2.098-2.468C91.591,57.522,92.197,58.341,92.197,60.011 M91.447,60.011c0-1.298-0.391-1.825-1.329-1.825
			c-1.034,0-1.347,0.471-1.347,1.806c0,1.368,0.194,1.953,1.347,1.953C91.271,61.944,91.447,61.3,91.447,60.011"/>
		<path fill="#636263" d="M97.119,55.706h1.649l1.822,6.784H99.85l-0.516-1.696h-2.833l-0.486,1.708h-0.753L97.119,55.706z
			 M96.681,60.068h2.498l-1.002-3.669h-0.493L96.681,60.068z"/>
		<path fill="#636263" d="M101.725,62.501v-4.88h0.731v0.331c0,0,0.586-0.351,1.222-0.391c0.195-0.02,0.382-0.029,0.537-0.009
			c0.411,0.04,0.702,0.176,0.897,0.412c0.281-0.108,1.093-0.441,1.768-0.441c1.326,0,1.65,0.635,1.65,2.441V62.5h-0.73v-2.313
			c0-1.495-0.1-1.992-1.026-1.992c-0.666,0-1.346,0.35-1.368,0.362c0.079,0.226,0.118,0.819,0.118,1.407V62.5h-0.733v-2.518
			c0-1.346-0.136-1.784-1.025-1.784c-0.653,0-1.307,0.359-1.307,0.359v3.945H101.725z"/>
		<path fill="#636263" d="M114.103,59.973c0,1.934-0.527,2.626-2.304,2.626c-0.583,0-1.638-0.108-1.638-0.108v-6.998h0.731v2.353
			c0,0,0.73-0.322,1.427-0.322C113.646,57.522,114.103,58.225,114.103,59.973 M113.361,59.992c0-1.267-0.253-1.794-1.114-1.794
			c-0.643,0-1.355,0.263-1.355,0.263v3.423c0,0,0.636,0.061,0.899,0.061C113.127,61.944,113.361,61.34,113.361,59.992"/>
		<path fill="#636263" d="M115.383,55.667h0.721v0.849h-0.721V55.667z M115.383,57.621h0.721v4.88h-0.721V57.621z"/>
		<path fill="#636263" d="M121.202,61.847l0.02,0.594c0,0-1.104,0.158-1.893,0.158c-1.465,0-1.946-0.849-1.946-2.508
			c0-1.852,0.813-2.566,2.055-2.566c1.285,0,1.959,0.683,1.959,2.282l-0.041,0.568h-3.228c0.008,1.025,0.321,1.559,1.287,1.559
			C120.147,61.933,121.202,61.847,121.202,61.847 M120.665,59.778c0-1.171-0.383-1.6-1.23-1.6c-0.839,0-1.308,0.458-1.308,1.6
			H120.665z"/>
		<path fill="#636263" d="M122.694,62.501v-4.88h0.73v0.322c0,0,0.82-0.419,1.515-0.419c1.338,0,1.638,0.662,1.638,2.44v2.538
			h-0.719v-2.529c0-1.299-0.145-1.775-1.035-1.775c-0.645,0-1.396,0.361-1.396,0.361v3.943H122.694L122.694,62.501z"/>
		<path fill="#636263" d="M129.079,58.286v2.274c0,1.062,0.059,1.354,0.703,1.354c0.272,0,0.87-0.048,0.87-0.048l0.039,0.635
			c0,0-0.645,0.107-0.988,0.107c-1.003,0-1.354-0.383-1.354-1.785v-2.538h-0.691v-0.665h0.691v-1.495h0.731v1.495h1.542v0.665
			H129.079z"/>
		<path fill="#636263" d="M135.238,61.847l0.019,0.594c0,0-1.101,0.158-1.892,0.158c-1.462,0-1.941-0.849-1.941-2.508
			c0-1.852,0.811-2.566,2.048-2.566c1.29,0,1.962,0.683,1.962,2.282l-0.038,0.568h-3.229c0.01,1.025,0.321,1.559,1.288,1.559
			C134.184,61.933,135.238,61.847,135.238,61.847 M134.701,59.778c0-1.171-0.379-1.6-1.229-1.6c-0.838,0-1.307,0.458-1.307,1.6
			H134.701z"/>
	</g>
	<polygon fill="#636263" points="161.684,44.563 162.417,44.563 162.427,51.357 161.684,51.357 	"/>
</g>
</svg>
